<svg preserveAspectRatio="none" overflow="visible" style="display: block;" width="181.172" height="40.2762" viewBox="0 0 181.172 40.2762" fill="none" xmlns="http://www.w3.org/2000/svg">
<g id="Group 2087330315">
<path id="Vector 3258" d="M99.4776 34.4487C99.3443 34.3236 99.1703 34.2441 98.9853 34.2354C98.8003 34.2265 98.6206 34.2881 98.4839 34.4082C98.3471 34.5282 98.2628 34.6985 98.2476 34.883C98.2324 35.0677 98.2887 35.2504 98.3955 35.3988C98.3955 35.3988 98.3955 35.3988 98.3955 35.3988C98.8558 35.9582 99.3902 36.1496 99.8803 36.3022C100.326 36.4298 100.751 36.4882 101.153 36.5174C109.008 36.4028 116.244 33.9677 122.834 30.0517C123.208 29.8041 123.585 29.5357 123.933 29.2612C124.06 29.1609 124.145 29.015 124.166 28.8539C124.188 28.6928 124.145 28.53 124.047 28.4009C123.95 28.2718 123.804 28.1868 123.643 28.1641C123.482 28.1413 123.319 28.1832 123.188 28.2786C123.188 28.2786 123.188 28.2786 123.188 28.2786C122.861 28.5164 122.503 28.7529 122.145 28.9721C115.84 32.4675 108.339 34.7635 101.272 34.844C100.934 34.82 100.589 34.7854 100.273 34.7247C99.9214 34.6606 99.6146 34.5485 99.4776 34.4487Z" fill="#DCBEAF"/>
<path id="Vector 3259" d="M125.118 28.6105C125.305 28.432 125.412 28.1875 125.414 27.9295C125.417 27.6715 125.315 27.4211 125.132 27.2346C124.949 27.0482 124.701 26.9413 124.443 26.9388C124.185 26.9362 123.938 27.0383 123.756 27.2211C123.756 27.2211 123.756 27.2211 123.756 27.2211C122.577 28.4072 121.439 29.6307 120.355 30.9157C119.385 32.0815 118.435 33.2671 117.661 34.6787C117.406 35.1696 117.153 35.6816 117.043 36.3658C116.997 36.7115 116.976 37.1616 117.242 37.6351C117.516 38.1152 118.01 38.3401 118.372 38.4169C119.857 38.6154 120.762 38.0842 121.747 37.7211C126.202 35.7138 130.035 32.9369 133.911 30.1853C134.645 29.6527 135.395 29.1375 136.137 28.6147L135.371 27.6588C134.198 28.5405 133.09 29.5116 132.118 30.6175C131.015 31.8929 129.975 33.2466 129.254 34.8912C128.916 35.721 128.596 36.6518 128.824 37.7797C129.046 38.96 130.177 39.7562 131.095 39.9979C134.067 40.6906 136.614 39.942 139.174 39.3613C144.902 37.8554 150.329 35.6669 155.672 33.2583C161.575 30.907 167.875 28.3217 174.128 28.0083C174.994 28.0238 175.861 28.0996 176.694 28.27C178.198 28.5721 179.725 29.2633 180.15 30.596C180.194 30.7269 180.286 30.8363 180.409 30.8999C180.532 30.9635 180.674 30.9761 180.806 30.9348C180.937 30.8934 181.047 30.8015 181.111 30.6792C181.176 30.5568 181.189 30.4141 181.15 30.282C181.15 30.282 181.15 30.282 181.15 30.282C180.558 28.3273 178.576 27.4864 176.951 27.1068C176.027 26.8917 175.095 26.787 174.166 26.7462C167.305 26.9411 161.194 29.4066 154.988 31.7775C149.722 34.0773 144.283 36.2267 138.746 37.679C136.331 38.2636 133.681 38.8814 131.58 38.3792C130.922 38.1835 130.554 37.8835 130.443 37.4083C130.32 36.9122 130.477 36.1958 130.757 35.5199C131.329 34.1532 132.279 32.8449 133.3 31.64C134.199 30.5895 135.128 29.5393 136.15 28.6042C136.717 28.1369 135.964 27.1967 135.384 27.6483C134.71 28.2285 134.01 28.7937 133.284 29.3204C129.468 32.0367 125.447 34.634 121.208 36.3855C120.356 36.7179 119.253 37.0256 118.748 36.8805C118.611 36.8383 118.63 36.8055 118.656 36.8384C118.674 36.868 118.649 36.7858 118.683 36.6316C118.744 36.327 118.943 35.9029 119.169 35.5115C119.854 34.34 120.793 33.2029 121.746 32.1129C122.815 30.9025 123.951 29.7307 125.118 28.6105Z" fill="#DCBEAF"/>
<path id="Vector 3257" d="M99.158 32.0343C99.1096 32.1864 99.1129 32.3534 99.1761 32.5022C99.2392 32.651 99.3558 32.769 99.5021 32.831C99.6485 32.893 99.8143 32.8947 99.9652 32.8366C100.116 32.7784 100.238 32.6647 100.314 32.5241C100.314 32.5241 100.314 32.5241 100.314 32.5241C100.511 32.1371 100.675 31.7176 100.694 31.1834C100.747 30.6784 100.392 29.8503 99.7644 29.5955C99.3228 29.3987 98.9941 29.4111 98.6822 29.4248C98.4968 29.4375 98.3193 29.4656 98.1513 29.5026C96.4633 29.9132 95.2101 30.9886 94.2344 32.195C93.5349 33.0838 92.9248 34.0439 92.5322 35.1778C92.3513 35.7506 92.1785 36.3703 92.3479 37.1515C92.4335 37.533 92.6832 37.9653 93.0464 38.2214C93.4052 38.4822 93.7988 38.579 94.141 38.6164C94.4674 38.6502 94.7594 38.6106 95.0204 38.5542C97.7198 37.7245 99.5786 36.0442 101.239 34.1129C102.333 32.7407 103.322 31.1983 103.678 29.2822C104.21 26.1124 103.417 23.0871 103.691 20.4394C103.792 19.5289 104.032 18.7105 104.526 18.0638C104.995 17.4469 105.65 16.9017 106.377 16.4366C110.265 14.0843 115.09 13.1902 119.761 12.582C120.724 12.4643 121.693 12.3665 122.666 12.2855C122.855 12.2698 123.03 12.1792 123.154 12.0346C123.277 11.8898 123.339 11.7029 123.324 11.5139C123.31 11.325 123.222 11.1493 123.078 11.0247C122.934 10.9001 122.747 10.8368 122.558 10.8495C122.558 10.8495 122.558 10.8495 122.558 10.8495C121.566 10.9164 120.578 11.0011 119.592 11.1064C114.79 11.6755 109.901 12.4358 105.469 14.9858C104.628 15.5063 103.808 16.1004 103.11 16.925C102.3 17.8799 101.913 19.1071 101.793 20.2247C101.507 23.4442 102.299 26.3014 101.85 28.9776C101.62 30.3652 100.807 31.7633 99.8394 32.9903C98.4448 34.7125 96.6565 36.5749 94.7118 37.1476C94.5514 37.1835 94.3967 37.1957 94.2967 37.1835C94.1124 37.1641 93.9721 37.1107 93.9025 37.0562C93.8331 37.0016 93.7937 36.9454 93.761 36.8126C93.6954 36.544 93.7721 36.0847 93.9266 35.6564C94.2409 34.7824 94.7944 33.921 95.4216 33.1551C96.2508 32.1438 97.3561 31.2978 98.489 31.0342C98.5967 31.0104 98.7042 30.9928 98.8023 30.9836C98.9603 30.964 99.1278 30.9903 99.1223 30.9871C99.1999 31.0257 99.2209 30.9781 99.2657 31.2118C99.2944 31.4244 99.2477 31.7369 99.158 32.0343Z" fill="#DCBEAF"/>
<path id="Vector 3254" d="M2.29973 33.5961C2.17111 33.6359 2.05894 33.7206 1.98926 33.8373C1.91957 33.954 1.89788 34.0923 1.92922 34.2229C1.96057 34.3535 2.04266 34.4668 2.15772 34.5392C2.27279 34.6116 2.41118 34.6362 2.54384 34.6132C2.54384 34.6132 2.54384 34.6132 2.54384 34.6132C3.19502 34.4698 3.67798 34.209 4.17596 33.8752C4.42092 33.7018 4.6598 33.5158 4.89003 33.2254C5.00175 33.0749 5.12664 32.9031 5.18752 32.5968C5.26884 32.2943 5.08957 31.8041 4.84217 31.6204C4.31629 31.2275 3.96078 31.3614 3.69791 31.3889C3.4295 31.4424 3.21131 31.5253 3.003 31.6172C2.58962 31.8034 2.22801 32.0334 1.88697 32.295C1.21637 32.8222 0.606514 33.459 0.230137 34.3558C0.095256 34.6892 0.00186634 35.0668 0.00197107 35.471C0.00197196 35.4732 0.00197536 35.4755 0.00198132 35.4777C-0.0547619 36.7975 1.11744 37.9767 2.21481 38.217C3.31826 38.5196 4.371 38.4013 5.33588 38.2337C9.66862 37.3043 13.2447 35.0303 16.7816 32.7558C29.1905 24.0327 39.9536 13.4132 51.6453 4.12518C52.5077 3.4609 53.3944 2.81619 54.2748 2.328C54.4966 2.20675 54.7112 2.10185 54.9 2.03161C54.9958 1.99564 55.0808 1.97347 55.1137 1.96936C55.1489 1.94499 55.1023 2.0529 54.755 1.83353C54.5947 1.71596 54.508 1.5136 54.4955 1.42997C54.4777 1.33597 54.4868 1.31515 54.4851 1.31528C54.4854 1.31965 54.4634 1.40546 54.4309 1.48545C54.3628 1.65992 54.2461 1.88313 54.1247 2.09012C53.6741 2.85148 53.0928 3.61593 52.4908 4.36749C49.0962 8.5419 45.4486 12.6532 42.1379 17.0215C42.1315 17.0299 42.1252 17.0383 42.1189 17.0468C39.8359 20.0942 37.6357 23.2388 35.8663 26.7085C35.0039 28.4402 34.1993 30.2919 33.8788 32.3473C33.4709 34.3325 34.1642 37.2065 36.3316 38.2835C39.1479 39.3686 41.1222 38.5147 43.3133 38.1447C49.6283 36.6274 55.5798 34.264 61.4583 31.699C63.8064 30.6178 66.1386 29.6724 68.4031 28.1223C68.5109 28.0323 68.5788 27.9021 68.5925 27.7614C68.6061 27.6206 68.5645 27.4808 68.476 27.3717C68.3874 27.2627 68.2591 27.1931 68.1185 27.1775C67.978 27.162 67.8367 27.2017 67.7264 27.2887C67.7264 27.2887 67.7264 27.2887 67.7264 27.2887C65.7769 28.5438 63.2648 29.5385 60.9517 30.5123C55.0698 32.8825 49.0461 35.0592 42.933 36.3844C40.9667 36.7749 38.4998 37.1719 37.3189 36.5991C34.5611 35.0607 36.2215 30.7705 37.8349 27.7243C39.5579 24.4972 41.7431 21.4445 43.9861 18.4532C43.9924 18.4449 43.9986 18.4366 44.0048 18.4283C47.2302 14.1024 50.7026 9.91782 54.0777 5.62174C54.6993 4.8159 55.2982 4.01737 55.8417 3.08198C55.9906 2.8197 56.144 2.5336 56.2748 2.19247C56.336 2.02615 56.4034 1.83932 56.4403 1.56183C56.4549 1.43275 56.4698 1.2644 56.4236 1.03267C56.3848 0.814902 56.23 0.4798 55.9599 0.279264C55.3876 -0.109306 55.0291 0.01532 54.7967 0.0327266C54.5595 0.0737301 54.3822 0.134091 54.2064 0.200356C53.8735 0.32958 53.6033 0.470447 53.3294 0.622832C52.2738 1.22506 51.3682 1.90877 50.4653 2.61713C38.745 12.1403 28.1117 22.8966 15.9652 31.5277C12.5309 33.778 8.94128 36.0029 5.07874 36.8167C3.39342 37.1839 1.49902 36.7103 1.59321 35.4734C1.5932 35.4724 1.5932 35.4714 1.5932 35.4703C1.59285 35.3113 1.62981 35.1315 1.70322 34.943C1.90237 34.4314 2.33971 33.902 2.83852 33.4779C3.08936 33.2649 3.36238 33.0724 3.63129 32.9298C3.76398 32.8594 3.89921 32.8018 4.00226 32.7723C4.10288 32.7246 4.17033 32.8106 3.94902 32.6631C3.90795 32.6462 3.83182 32.4292 3.86408 32.3858C3.88153 32.3387 3.87311 32.3989 3.83312 32.4598C3.75365 32.5909 3.59755 32.7551 3.42959 32.9002C3.09418 33.1895 2.65868 33.469 2.29973 33.5961Z" fill="#DCBEAF"/>
<path id="Vector 3255" d="M68.7922 28.2269C68.9324 28.0531 69.0027 27.8315 68.9842 27.6078C68.9657 27.3842 68.8604 27.1773 68.6908 27.0322C68.5213 26.8871 68.3007 26.8149 68.0769 26.8311C67.853 26.8473 67.6449 26.9509 67.4948 27.1163C67.4948 27.1163 67.4948 27.1163 67.4948 27.1163C67.1454 27.5014 66.7967 27.8871 66.4487 28.2734C63.9368 31.0616 61.461 33.8807 59.0213 36.7306C58.844 36.9377 58.6677 37.1457 58.4922 37.3544L60.0704 38.6936C61.3615 37.1623 62.7494 35.2983 64.0216 34.3574C65.1191 33.722 66.4091 33.7065 67.5722 34.3435C68.022 34.5833 68.4991 34.7459 68.9899 34.8395C70.5307 35.1545 72.1847 34.5986 73.3008 33.6036C73.7466 33.2196 74.1259 32.7891 74.4608 32.3294C74.5732 32.175 74.6196 31.9823 74.5898 31.7936C74.5601 31.605 74.4567 31.4359 74.3022 31.3235C74.1478 31.2112 73.9551 31.1647 73.7665 31.1945C73.5778 31.2242 73.4087 31.3277 73.2964 31.4821C73.2964 31.4821 73.2964 31.4821 73.2964 31.4821C73.0161 31.867 72.7074 32.2142 72.3616 32.5119C71.4865 33.2797 70.3525 33.6404 69.2586 33.4247C68.9116 33.3589 68.5726 33.2361 68.2741 33.0656C66.853 32.1948 64.8075 32.0458 63.2553 32.8285C61.0629 34.211 59.9214 35.7752 58.4865 37.3611C57.687 38.3114 59.257 39.6438 60.0646 38.7004C60.2438 38.4949 60.422 38.2886 60.5993 38.0815C63.039 35.2315 65.4427 32.3506 67.8102 29.4389C68.1382 29.0355 68.4655 28.6315 68.7922 28.2269Z" fill="#DCBEAF"/>
<path id="Vector 3256" d="M77.9172 30.7856C78.1061 30.8136 78.2984 30.7654 78.4518 30.6517C78.6052 30.5379 78.7071 30.3678 78.7351 30.1789C78.7631 29.99 78.7149 29.7977 78.6011 29.6444C78.4873 29.491 78.3172 29.3891 78.1283 29.3611C78.1283 29.3611 78.1283 29.3611 78.1283 29.3611C77.1667 29.2841 76.5934 29.5535 75.9453 29.7918C75.7238 29.8822 75.5071 29.9798 75.2939 30.0839C74.1882 30.6303 73.1565 31.3245 72.2777 32.2562C71.5771 33.0274 71.0239 33.839 70.5816 34.7965C70.3696 35.2777 70.1775 35.7962 70.134 36.4405C70.0606 37.0467 70.3647 38.0617 71.1163 38.4678C71.7051 38.8128 72.2629 38.8503 72.7436 38.8571C75.8827 38.647 78.108 36.9308 80.0599 34.9964C80.7731 34.2301 81.3851 33.3958 81.854 32.4124C82.082 31.9162 82.285 31.3838 82.3382 30.7279C82.4146 30.1063 82.1496 29.1273 81.4385 28.6777C79.1933 27.2915 76.8088 29.3634 76.8484 31.4804C76.7834 32.3924 77.3266 33.6647 78.2129 34.1917C79.065 34.7563 79.9538 34.9345 80.7988 35.0453C85.2292 35.4009 89.2632 34.2029 93.2627 33.1273C94.0964 32.8897 94.8703 32.6584 95.7099 32.4007C95.8689 32.3517 96.0026 32.2407 96.0819 32.0932C96.1612 31.9457 96.1796 31.7738 96.1328 31.6142C96.086 31.4545 95.9776 31.3199 95.8311 31.2386C95.6847 31.1574 95.5122 31.1362 95.3519 31.1809C95.3519 31.1809 95.3519 31.1809 95.3519 31.1809C94.5147 31.4148 93.7431 31.6199 92.914 31.8295C88.9732 32.7788 84.8308 33.7576 81.0071 33.3942C79.5538 33.2019 78.4521 32.6836 78.5579 31.4804C78.49 30.4855 79.8887 29.5972 80.4364 30.1155C80.5488 30.2058 80.5934 30.2746 80.5783 30.5966C80.5546 30.898 80.4255 31.2838 80.2478 31.6535C79.8874 32.4004 79.3517 33.1319 78.755 33.7611C77.1247 35.4274 74.8148 36.9455 72.7461 37.0297C72.436 37.0332 72.1565 36.9684 72.0647 36.905C72.008 36.8672 72.0041 36.8613 71.98 36.816C71.958 36.7712 71.9343 36.667 71.9383 36.5248C71.9435 36.2393 72.0464 35.8519 72.1929 35.4793C72.4907 34.7273 72.9535 33.9435 73.4677 33.3107C74.12 32.5268 74.9922 31.8604 75.9374 31.378C76.119 31.2858 76.3034 31.201 76.4891 31.1253C76.9907 30.9155 77.6329 30.7454 77.9172 30.7856Z" fill="#DCBEAF"/>
</g>
</svg>
